HIERARCHY
ROOT Hips
{
	OFFSET -8.665500 -1.496397 44.816700
	CHANNELS 6 Xposition Yposition Zposition Zrotation Xrotation Yrotation
	JOINT Chest
	{
		OFFSET -0.698600 0.806100 5.350899
		CHANNELS 6 Xposition Yposition Zposition Zrotation Xrotation Yrotation
		JOINT Chest2
		{
			OFFSET 0.000000 0.000000 4.409100
			CHANNELS 6 Xposition Yposition Zposition Zrotation Xrotation Yrotation
			JOINT Neck
			{
				OFFSET 0.000000 0.000001 10.248299
				CHANNELS 6 Xposition Yposition Zposition Zrotation Xrotation Yrotation
				JOINT Head
				{
					OFFSET 0.000000 0.000000 2.173897
					CHANNELS 6 Xposition Yposition Zposition Zrotation Xrotation Yrotation
					End Site
					{
						OFFSET 0.000000 0.000001 9.966400
					}
				}
			}
			JOINT LeftCollar
			{
				OFFSET 2.100600 -0.520900 6.016098
				CHANNELS 6 Xposition Yposition Zposition Zrotation Xrotation Yrotation
				JOINT LeftShoulder
				{
					OFFSET 5.536700 0.000000 0.000000
					CHANNELS 6 Xposition Yposition Zposition Zrotation Xrotation Yrotation
					JOINT LeftElbow
					{
						OFFSET 0.000000 -0.000001 -12.362099
						CHANNELS 6 Xposition Yposition Zposition Zrotation Xrotation Yrotation
						JOINT LeftWrist
						{
							OFFSET 0.000000 -0.000001 -10.273201
							CHANNELS 6 Xposition Yposition Zposition Zrotation Xrotation Yrotation
							End Site
							{
								OFFSET 0.000000 -0.000000 -2.173901
							}
						}
					}
				}
			}
			JOINT RightCollar
			{
				OFFSET -2.899500 -1.655900 6.981701
				CHANNELS 6 Xposition Yposition Zposition Zrotation Xrotation Yrotation
				JOINT RightShoulder
				{
					OFFSET -4.387501 0.000000 0.000000
					CHANNELS 6 Xposition Yposition Zposition Zrotation Xrotation Yrotation
					JOINT RightElbow
					{
						OFFSET 0.000000 -0.000001 -10.858101
						CHANNELS 6 Xposition Yposition Zposition Zrotation Xrotation Yrotation
						JOINT RightWrist
						{
							OFFSET 0.000000 -0.000001 -12.079601
							CHANNELS 6 Xposition Yposition Zposition Zrotation Xrotation Yrotation
							End Site
							{
								OFFSET 0.000000 0.000000 -2.173901
							}
						}
					}
				}
			}
		}
	}
	JOINT LeftHip
	{
		OFFSET 2.190800 0.073900 -2.522499
		CHANNELS 6 Xposition Yposition Zposition Zrotation Xrotation Yrotation
		JOINT LeftKnee
		{
			OFFSET 0.000000 -0.000002 -20.305000
			CHANNELS 6 Xposition Yposition Zposition Zrotation Xrotation Yrotation
			JOINT LeftAnkle
			{
				OFFSET 0.000000 -0.000001 -16.771700
				CHANNELS 6 Xposition Yposition Zposition Zrotation Xrotation Yrotation
				End Site
				{
					OFFSET 0.000000 -8.738000 0.000001
				}
			}
		}
	}
	JOINT RightHip
	{
		OFFSET -2.029500 0.054300 -2.705200
		CHANNELS 6 Xposition Yposition Zposition Zrotation Xrotation Yrotation
		JOINT RightKnee
		{
			OFFSET 0.000000 -0.000002 -20.030399
			CHANNELS 6 Xposition Yposition Zposition Zrotation Xrotation Yrotation
			JOINT RightAnkle
			{
				OFFSET 0.000000 -0.000001 -17.032700
				CHANNELS 6 Xposition Yposition Zposition Zrotation Xrotation Yrotation
				End Site
				{
					OFFSET 0.000000 -8.823600 0.000001
				}
			}
		}
	}
}
MOTION
Frames: 5
Frame Time: 0.041667
-29.819096 11.347399 23.136900 3140.274875 6.419478 16.584589 -0.698602 0.806099 5.350898 -1.709105 -9.383086 21.847940 -0.000001 -0.000003 4.409102 0.305369 -3.215994 -0.210914 0.000003 0.000001 10.248301 103.253684 -10.247369 -16.850463 -0.000002 -0.000001 2.173899 -40.381076 -1.006495 21.356574 2.100603 -0.520902 6.016106 -7.102242 4.862234 5.913204 5.536696 0.000007 0.000007 -93.235729 -45.338482 230.900173 -0.000002 0.000001 -12.362101 -2069.815718 -2.599030 2.445964 -0.000001 -0.000002 -10.273198 1241.840515 172.964965 -207.868693 -2.899496 -1.655901 6.981699 -2.837535 -0.412574 27.976458 -4.387507 -0.000002 -0.000005 -1149.011360 -506.722118 -24.232797 -0.000002 -0.000005 -10.858111 103.404433 224.542264 71.826215 0.000002 -0.000002 -12.079603 -121.968887 -173.881631 166.328166 2.190799 0.073899 -2.522501 -767.288534 -151.655717 -59.324516 -0.000006 -0.000001 -20.305016 -531.499858 -18.839323 128.010941 -0.000006 0.000004 -16.771704 1503.315784 3.304145 46.930793 -2.029499 0.054297 -2.705207 -403.423047 -31.846758 -20.320441 0.000001 -0.000002 -20.030399 504.034739 23.511077 -146.679911 0.000001 -0.000002 -17.032701 -29.745406 39.287890 -18.021620
-29.843700 11.322996 23.162395 3140.475082 6.764022 16.617119 -0.698600 0.806100 5.350894 -2.647184 -9.772845 21.831284 0.000004 -0.000001 4.409103 0.788347 -3.367257 -0.232845 -0.000003 -0.000003 10.248300 103.788809 -10.415446 -16.601415 -0.000001 0.000001 2.173889 -40.589868 -1.169435 21.242138 2.100598 -0.520902 6.016104 -6.808270 4.627664 6.281015 5.536695 0.000003 -0.000003 -92.717236 -44.464320 230.901457 -0.000001 0.000001 -12.362094 -2069.380334 -2.602935 2.275667 -0.000003 -0.000000 -10.273205 1241.310493 172.867047 -207.937241 -2.899505 -1.655905 6.981706 -2.778508 0.475726 27.763630 -4.387500 -0.000001 -0.000006 -1148.334461 -507.205695 -22.827761 0.000000 -0.000005 -10.858106 104.170548 224.564339 72.574175 0.000001 -0.000002 -12.079599 -121.010325 -173.765641 166.841878 2.190799 0.073898 -2.522499 -767.391042 -151.403888 -59.056466 -0.000009 -0.000001 -20.305010 -531.194303 -18.700377 127.992062 -0.000000 0.000006 -16.771709 1503.258083 3.284217 47.022663 -2.029500 0.054294 -2.705203 -403.636641 -32.004675 -20.408289 0.000002 -0.000004 -20.030399 503.885950 23.488262 -146.509525 0.000001 -0.000001 -17.032700 -29.392517 39.298853 -18.190752
-29.858902 11.301000 23.189499 3140.805553 7.145278 16.675079 -0.698603 0.806100 5.350902 -3.874661 -10.175505 21.767833 -0.000000 -0.000002 4.409097 1.333299 -3.526842 -0.259516 -0.000001 0.000002 10.248299 103.665401 -10.445715 -16.138195 0.000000 -0.000002 2.173895 -40.131818 -1.130386 20.714178 2.100599 -0.520901 6.016101 -6.439141 4.301248 6.767459 5.536694 0.000006 0.000003 -91.820057 -43.117799 231.107155 -0.000000 0.000003 -12.362100 -2072.138201 -2.740617 2.014880 -0.000003 -0.000005 -10.273196 1243.880502 172.647757 -208.334580 -2.899504 -1.655899 6.981702 -2.494666 1.620565 27.651807 -4.387496 -0.000008 -0.000002 -1147.651551 -507.577913 -21.077486 0.000002 0.000000 -10.858094 105.191607 224.242091 73.419472 -0.000002 0.000003 -12.079596 -119.827227 -173.705972 167.374592 2.190798 0.073901 -2.522495 -767.638021 -151.258023 -58.802950 -0.000005 -0.000001 -20.305008 -531.027155 -18.530206 127.952953 0.000000 0.000003 -16.771702 1503.161586 3.307765 47.004252 -2.029501 0.054296 -2.705203 -403.563831 -32.194250 -20.321399 0.000003 -0.000003 -20.030394 503.183151 23.217196 -146.257778 -0.000001 -0.000002 -17.032703 -29.076942 39.033257 -18.926591
-29.853901 11.282898 23.211203 3141.263886 7.686125 16.803877 -0.698598 0.806103 5.350904 -5.534446 -10.653494 21.606183 0.000003 -0.000002 4.409104 1.991769 -3.741955 -0.294013 -0.000001 -0.000004 10.248297 103.997382 -10.633234 -15.562786 0.000001 0.000001 2.173893 -40.075872 -1.309706 20.594494 2.100600 -0.520905 6.016105 -6.031458 4.016865 7.564450 5.536695 0.000007 -0.000006 -90.692973 -41.309701 231.230945 -0.000002 -0.000001 -12.362101 -2071.204049 -2.706319 2.030500 -0.000003 -0.000003 -10.273201 1242.689863 172.629370 -208.912319 -2.899501 -1.655903 6.981704 -2.080051 3.150906 27.489794 -4.387496 -0.000002 -0.000003 -1147.179339 -508.064332 -19.072596 0.000001 0.000001 -10.858100 105.821712 224.390620 74.051600 0.000002 -0.000002 -12.079603 -118.670179 -173.646030 167.950964 2.190800 0.073900 -2.522496 -767.994612 -151.156594 -58.384512 -0.000005 -0.000002 -20.305017 -530.889895 -18.363624 127.906180 -0.000002 0.000004 -16.771711 1503.078422 3.366504 46.941588 -2.029499 0.054301 -2.705200 -403.241828 -32.501547 -20.179901 0.000001 -0.000002 -20.030394 502.169715 23.074599 -146.139096 0.000001 -0.000003 -17.032698 -28.851426 38.826924 -19.254032
-29.827805 11.250998 23.239899 3141.855763 8.497654 16.702259 -0.698600 0.806103 5.350896 -6.533712 -10.887160 21.933631 0.000002 0.000000 4.409104 2.194102 -3.926466 -0.313341 -0.000004 -0.000003 10.248296 104.120114 -11.055899 -14.756260 0.000002 -0.000002 2.173904 -40.070975 -1.488238 20.443782 2.100597 -0.520902 6.016099 -6.014219 4.123199 7.976217 5.536695 0.000004 0.000002 -90.945984 -40.685060 230.118471 0.000001 0.000001 -12.362094 -2071.350926 -2.684172 2.225652 -0.000002 -0.000001 -10.273200 1241.600421 172.862580 -209.580270 -2.899505 -1.655903 6.981696 -2.019434 3.551591 25.926862 -4.387500 -0.000001 -0.000004 -1147.702696 -509.500802 -18.777807 -0.000006 0.000003 -10.858099 105.812601 224.504753 74.412370 0.000003 0.000003 -12.079598 -116.857556 -173.722610 168.205744 2.190799 0.073898 -2.522499 -768.522449 -151.069646 -57.834217 -0.000009 -0.000001 -20.305014 -530.629638 -17.909629 127.823247 0.000001 0.000004 -16.771702 1502.835267 3.497852 46.814537 -2.029500 0.054300 -2.705199 -403.361603 -33.118699 -20.173356 -0.000003 -0.000003 -20.030397 501.304521 22.849648 -146.053159 0.000000 -0.000001 -17.032700 -28.645158 38.649629 -19.825263
